<svg width="134" height="32" viewBox="0 0 134 32" fill="none" xmlns="http://www.w3.org/2000/svg">
    <path d="M61.0068 1C61.0068 0.447715 61.4546 0 62.0068 0H114.007C124.5 0 133.007 8.50659 133.007 19V31C133.007 31.5523 132.559 32 132.007 32H62.0068C61.4546 32 61.0068 31.5523 61.0068 31V1Z" fill="#1B1B1B"/>
    <path d="M5.65695 24.0652V9.7781H0V5.64722H16.4972V9.7781H10.8666V24.0652H5.65695Z" fill="#1B1B1B"/>
    <path d="M24.2348 24.302C22.5509 24.302 21.0775 23.9863 19.8145 23.3548C18.5691 22.7058 17.5956 21.8287 16.894 20.7236C16.2099 19.601 15.8678 18.3293 15.8678 16.9085C15.8678 15.4877 16.2011 14.2247 16.8677 13.1197C17.5517 11.997 18.4902 11.1288 19.683 10.5148C20.8758 9.88335 22.2176 9.56761 23.7086 9.56761C25.1119 9.56761 26.3924 9.85704 27.5501 10.4359C28.7078 10.9972 29.6287 11.8304 30.3128 12.9355C30.9969 14.0405 31.3389 15.3824 31.3389 16.9611C31.3389 17.1365 31.3301 17.3382 31.3126 17.5663C31.2951 17.7943 31.2775 18.0048 31.26 18.1977H19.9724V15.5666H28.6025L26.7081 16.3033C26.7256 15.6543 26.6029 15.093 26.3398 14.6194C26.0942 14.1458 25.7434 13.7774 25.2873 13.5143C24.8488 13.2512 24.3313 13.1197 23.7349 13.1197C23.1385 13.1197 22.6123 13.2512 22.1562 13.5143C21.7177 13.7774 21.3757 14.1546 21.1301 14.6457C20.8845 15.1193 20.7617 15.6806 20.7617 16.3296V17.0927C20.7617 17.7943 20.9021 18.3995 21.1827 18.9082C21.4809 19.4168 21.9019 19.8115 22.4457 20.0922C22.9894 20.3553 23.6384 20.4868 24.3927 20.4868C25.0943 20.4868 25.6907 20.3904 26.1819 20.1974C26.6906 19.9869 27.1905 19.6712 27.6816 19.2502L30.3128 21.9866C29.6287 22.7408 28.7867 23.3197 27.7869 23.7231C26.787 24.109 25.603 24.302 24.2348 24.302Z" fill="#1B1B1B"/>
    <path d="M38.8272 24.302C37.6169 24.302 36.4328 24.1617 35.2751 23.881C34.135 23.6004 33.2141 23.2495 32.5124 22.8286L34.0122 19.4081C34.6787 19.8115 35.4593 20.136 36.3539 20.3816C37.2485 20.6096 38.1255 20.7236 38.985 20.7236C39.827 20.7236 40.4059 20.6359 40.7216 20.4605C41.0549 20.2851 41.2215 20.0483 41.2215 19.7501C41.2215 19.4695 41.0636 19.2677 40.7479 19.145C40.4497 19.0046 40.0463 18.8994 39.5376 18.8292C39.0464 18.7591 38.5027 18.6801 37.9063 18.5924C37.3099 18.5047 36.7047 18.3907 36.0908 18.2504C35.4944 18.0925 34.9419 17.8645 34.4332 17.5663C33.942 17.2505 33.5474 16.8296 33.2492 16.3033C32.951 15.7771 32.8019 15.1105 32.8019 14.3037C32.8019 13.3915 33.065 12.5847 33.5912 11.883C34.135 11.1638 34.9243 10.6025 35.9592 10.1991C36.9941 9.7781 38.2571 9.56761 39.7481 9.56761C40.7479 9.56761 41.7565 9.67286 42.7739 9.88335C43.8088 10.0763 44.6771 10.3745 45.3787 10.7779L43.879 14.1721C43.1773 13.7687 42.4757 13.4968 41.774 13.3565C41.0724 13.1986 40.4059 13.1197 39.7744 13.1197C38.9324 13.1197 38.336 13.2161 37.9852 13.4091C37.6519 13.602 37.4853 13.8388 37.4853 14.1195C37.4853 14.4001 37.6344 14.6194 37.9326 14.7773C38.2308 14.9176 38.6255 15.0316 39.1166 15.1193C39.6253 15.1895 40.1778 15.2684 40.7742 15.3561C41.3706 15.4263 41.967 15.5403 42.5634 15.6982C43.1773 15.856 43.7299 16.0928 44.221 16.4086C44.7297 16.7068 45.1331 17.119 45.4313 17.6452C45.7295 18.1539 45.8786 18.8117 45.8786 19.6186C45.8786 20.4956 45.6067 21.285 45.063 21.9866C44.5367 22.6882 43.7474 23.2495 42.6949 23.6705C41.66 24.0915 40.3708 24.302 38.8272 24.302Z" fill="#1B1B1B"/>
    <path d="M54.4002 24.302C52.576 24.302 51.1552 23.8547 50.1378 22.9601C49.1204 22.048 48.6117 20.6798 48.6117 18.8555V6.62074H53.6109V18.8029C53.6109 19.3116 53.7512 19.715 54.0319 20.0132C54.3125 20.2939 54.6721 20.4342 55.1106 20.4342C55.707 20.4342 56.2157 20.2851 56.6367 19.9869L57.8733 23.4863C57.4523 23.767 56.9349 23.9687 56.321 24.0915C55.707 24.2318 55.0668 24.302 54.4002 24.302ZM46.5331 14.0669V10.3306H56.8735V14.0669H46.5331Z" fill="#1B1B1B"/>
    <path d="M64.9106 24.0653V5.64731H74.3301C76.7508 5.64731 78.5575 6.09461 79.7503 6.98919C80.943 7.86624 81.5394 9.02394 81.5394 10.4623C81.5394 11.4095 81.2851 12.2427 80.7764 12.9619C80.2853 13.6635 79.5836 14.2248 78.6715 14.6458C77.7769 15.0492 76.7069 15.251 75.4615 15.251L75.9877 13.988C77.2858 13.988 78.4172 14.1897 79.3819 14.5932C80.3467 14.9791 81.0921 15.5492 81.6184 16.3034C82.1621 17.0401 82.434 17.9435 82.434 19.0135C82.434 20.6097 81.785 21.8551 80.487 22.7497C79.2065 23.6268 77.3296 24.0653 74.8563 24.0653H64.9106ZM70.0677 20.3028H74.4354C75.33 20.3028 76.0053 20.1537 76.4613 19.8555C76.9349 19.5397 77.1717 19.0661 77.1717 18.4346C77.1717 17.8032 76.9349 17.3383 76.4613 17.0401C76.0053 16.7244 75.33 16.5665 74.4354 16.5665H69.6993V12.9619H73.646C74.5231 12.9619 75.1809 12.8128 75.6194 12.5146C76.0579 12.2164 76.2772 11.7691 76.2772 11.1727C76.2772 10.5763 76.0579 10.1378 75.6194 9.85714C75.1809 9.55894 74.5231 9.40984 73.646 9.40984H70.0677V20.3028Z" fill="white"/>
    <path d="M84.8956 24.0653V4.54224H89.8947V24.0653H84.8956Z" fill="white"/>
    <path d="M100.3 24.3021C98.7391 24.3021 97.3534 23.9863 96.1431 23.3549C94.9328 22.7234 93.9768 21.8551 93.2751 20.75C92.591 19.6274 92.249 18.3469 92.249 16.9086C92.249 15.4702 92.591 14.1985 93.2751 13.0934C93.9768 11.9884 94.9328 11.1289 96.1431 10.5149C97.3534 9.88345 98.7391 9.56771 100.3 9.56771C101.861 9.56771 103.247 9.88345 104.457 10.5149C105.685 11.1289 106.641 11.9884 107.325 13.0934C108.01 14.1985 108.352 15.4702 108.352 16.9086C108.352 18.3469 108.01 19.6274 107.325 20.75C106.641 21.8551 105.685 22.7234 104.457 23.3549C103.247 23.9863 101.861 24.3021 100.3 24.3021ZM100.3 20.3291C100.879 20.3291 101.388 20.1975 101.826 19.9344C102.282 19.6713 102.642 19.2854 102.905 18.7767C103.168 18.2505 103.3 17.6278 103.3 16.9086C103.3 16.1894 103.168 15.5842 102.905 15.0931C102.642 14.5844 102.282 14.1985 101.826 13.9354C101.388 13.6723 100.879 13.5407 100.3 13.5407C99.739 13.5407 99.2303 13.6723 98.7742 13.9354C98.3357 14.1985 97.9761 14.5844 97.6954 15.0931C97.4323 15.5842 97.3008 16.1894 97.3008 16.9086C97.3008 17.6278 97.4323 18.2505 97.6954 18.7767C97.9761 19.2854 98.3357 19.6713 98.7742 19.9344C99.2303 20.1975 99.739 20.3291 100.3 20.3291Z" fill="white"/>
    <path d="M117.64 29.4065C116.272 29.4065 114.965 29.2486 113.719 28.9329C112.492 28.6172 111.439 28.1523 110.562 27.5384L112.378 24.039C112.974 24.5126 113.711 24.8809 114.588 25.144C115.482 25.4247 116.351 25.565 117.193 25.565C118.543 25.565 119.517 25.2668 120.113 24.6704C120.71 24.0916 121.008 23.2409 121.008 22.1182V20.4343L121.271 16.435L121.245 12.4093V9.80451H126.007V21.4605C126.007 24.1618 125.279 26.1614 123.823 27.4595C122.367 28.7575 120.306 29.4065 117.64 29.4065ZM116.772 23.3286C115.509 23.3286 114.342 23.0479 113.272 22.4866C112.22 21.9077 111.369 21.1096 110.72 20.0923C110.089 19.0573 109.773 17.8383 109.773 16.435C109.773 15.0317 110.089 13.8214 110.72 12.804C111.369 11.7691 112.22 10.971 113.272 10.4097C114.342 9.84837 115.509 9.56771 116.772 9.56771C117.982 9.56771 119.017 9.81328 119.876 10.3044C120.736 10.778 121.385 11.5235 121.823 12.5409C122.279 13.5583 122.507 14.8563 122.507 16.435C122.507 18.0137 122.279 19.3117 121.823 20.3291C121.385 21.3464 120.736 22.1007 119.876 22.5918C119.017 23.083 117.982 23.3286 116.772 23.3286ZM117.956 19.3555C118.552 19.3555 119.078 19.2328 119.534 18.9872C120.008 18.7416 120.376 18.3996 120.639 17.961C120.92 17.5225 121.06 17.0138 121.06 16.435C121.06 15.8561 120.92 15.3474 120.639 14.9089C120.376 14.4704 120.008 14.1371 119.534 13.9091C119.078 13.6635 118.552 13.5407 117.956 13.5407C117.359 13.5407 116.824 13.6635 116.351 13.9091C115.877 14.1371 115.5 14.4704 115.219 14.9089C114.956 15.3474 114.825 15.8561 114.825 16.435C114.825 17.0138 114.956 17.5225 115.219 17.961C115.5 18.3996 115.877 18.7416 116.351 18.9872C116.824 19.2328 117.359 19.3555 117.956 19.3555Z" fill="white"/>
</svg>
